<svg width="17" height="17" viewBox="0 0 17 17" fill="none" xmlns="http://www.w3.org/2000/svg">
<g clip-path="url(#clip0_2_868)">
<path d="M14.9709 4.64801C14.9709 4.80358 15.0986 4.92971 15.2561 4.92971H15.5413C15.6988 4.92971 15.8264 4.80358 15.8264 4.64801C15.8264 4.49243 15.6988 4.36631 15.5413 4.36631H15.2561C15.0986 4.36631 14.9709 4.49243 14.9709 4.64801Z" fill="#212326"/>
<path d="M6.70084 13.3807H8.08619L7.68288 12.9823C7.57593 12.8767 7.43085 12.8173 7.27959 12.8173H6.70084C4.49585 12.8173 2.70836 11.0516 2.70836 8.87354C2.70836 6.69543 4.49585 4.92974 6.70084 4.92974H11.2637C13.4687 4.92974 15.2562 6.69543 15.2562 8.87354C15.2562 11.0516 13.4687 12.8173 11.2637 12.8173H9.55682C9.32991 12.8173 9.11231 12.7283 8.95185 12.5698L8.47937 12.1031C8.21197 11.8389 7.84927 11.6905 7.4711 11.6905H6.70084C5.12584 11.6905 3.84907 10.4293 3.84907 8.87354C3.84907 7.31774 5.12584 6.05654 6.70084 6.05654H11.2637C12.8387 6.05654 14.1155 7.31774 14.1155 8.87354C14.1155 10.4293 12.8387 11.6905 11.2637 11.6905H10.1677C9.9408 11.6905 9.7232 11.6015 9.56275 11.443L9.09025 10.9763C8.82284 10.7121 8.46016 10.5637 8.08199 10.5637H6.70084C5.75586 10.5637 4.98978 9.807 4.98978 8.87354C4.98978 7.94007 5.75586 7.18334 6.70084 7.18334H11.2637C12.2087 7.18334 12.9748 7.94007 12.9748 8.87354C12.9748 9.79562 12.2272 10.5453 11.2982 10.5634L11.298 10.5637H10.8807C10.6537 10.5637 10.4361 10.4747 10.2757 10.3162L9.80319 9.84948C9.58379 9.63273 9.30023 9.49393 8.99659 9.45109L8.98226 9.43693H6.70084C6.38585 9.43693 6.13049 9.18469 6.13049 8.87354C6.13049 8.56238 6.38585 8.31014 6.70084 8.31014H11.2637C11.5787 8.31014 11.834 8.56238 11.834 8.87354C11.834 9.18469 11.5787 9.43693 11.2637 9.43693H10.123L10.5263 9.83533C10.6332 9.94097 10.7783 10.0003 10.9296 10.0003H11.2637C11.8937 10.0003 12.4044 9.49584 12.4044 8.87354C12.4044 8.25123 11.8937 7.74674 11.2637 7.74674H6.70084C6.07085 7.74674 5.56013 8.25123 5.56013 8.87354C5.56013 9.49584 6.07085 10.0003 6.70084 10.0003H8.79494C9.02185 10.0003 9.23945 10.0894 9.3999 10.2478L9.87241 10.7146C10.1398 10.9787 10.5025 11.1271 10.8807 11.1271H11.4063V11.1228C12.5998 11.0501 13.5451 10.0708 13.5451 8.87354C13.5451 7.62892 12.5237 6.61994 11.2637 6.61994H6.70084C5.44086 6.61994 4.41942 7.62892 4.41942 8.87354C4.41942 10.1182 5.44086 11.1271 6.70084 11.1271H8.08199C8.3089 11.1271 8.52651 11.2162 8.68696 11.3746L9.15946 11.8414C9.42687 12.1055 9.78955 12.2539 10.1677 12.2539H11.2637C13.1537 12.2539 14.6858 10.7405 14.6858 8.87354C14.6858 7.00659 13.1537 5.49314 11.2637 5.49314H6.70084C4.81085 5.49314 3.27871 7.00659 3.27871 8.87354C3.27871 10.7405 4.81085 12.2539 6.70084 12.2539H7.4711C7.69801 12.2539 7.91561 12.343 8.07606 12.5014L8.54857 12.9682C8.81597 13.2323 9.17865 13.3807 9.55682 13.3807H11.2637C13.7837 13.3807 15.8265 11.3628 15.8265 8.87354C15.8265 6.38428 13.7837 4.36634 11.2637 4.36634L6.70084 4.36634C4.18085 4.36634 2.138 6.38428 2.138 8.87354C2.138 11.3628 4.18086 13.3807 6.70084 13.3807Z" fill="#212326"/>
</g>
<defs>
<clipPath id="clip0_2_868">
<rect width="13.6885" height="9.0144" fill="white" transform="translate(2.138 4.36634)"/>
</clipPath>
</defs>
</svg>
