<svg width="17" height="17" viewBox="0 0 17 17" fill="none" xmlns="http://www.w3.org/2000/svg">
<g clip-path="url(#clip0_2_852)">
<path d="M15.3939 5.22258C15.3939 5.23387 15.3939 5.24798 15.3909 5.25645C15.3762 5.36652 15.3762 5.47659 15.385 5.58949C15.3909 5.61771 15.3968 5.64593 15.4203 5.66851C15.4585 5.71085 15.5173 5.70238 15.5409 5.65158C15.5527 5.62618 15.5527 5.60078 15.5468 5.57537C15.5173 5.46813 15.5115 5.35523 15.5085 5.24516C15.5085 5.23952 15.5085 5.23105 15.5085 5.22258C15.5409 5.21976 15.5703 5.21694 15.5967 5.21694C15.6173 5.21412 15.635 5.21129 15.6497 5.20283C15.6938 5.18025 15.6938 5.13227 15.6467 5.10969C15.6291 5.10122 15.6056 5.0984 15.585 5.0984C15.5115 5.10122 15.438 5.10122 15.3644 5.10122C15.338 5.10122 15.3115 5.10405 15.285 5.10687C15.2703 5.10969 15.2527 5.10969 15.241 5.11816C15.2203 5.12662 15.2086 5.14074 15.2086 5.16049C15.2115 5.18025 15.2203 5.19154 15.241 5.20001C15.2527 5.20847 15.2674 5.21129 15.2821 5.21129C15.3174 5.21412 15.3556 5.21976 15.3939 5.22258ZM16.2025 5.35241C16.2025 5.35523 16.2055 5.35805 16.2055 5.35805C16.2172 5.43426 16.229 5.50764 16.2378 5.58102C16.2408 5.60642 16.2437 5.629 16.2613 5.64875C16.2996 5.69673 16.3584 5.69109 16.3848 5.64029C16.3966 5.61489 16.3995 5.58949 16.3937 5.56126C16.376 5.47659 16.3672 5.39192 16.3495 5.31008C16.3378 5.25927 16.3231 5.21129 16.3084 5.16614C16.2996 5.13791 16.279 5.11816 16.2437 5.11534C16.2084 5.10969 16.1819 5.12662 16.1672 5.15203C16.1496 5.1746 16.1349 5.19718 16.1231 5.22258C16.1025 5.26774 16.0849 5.3129 16.0614 5.35523C16.0584 5.36652 16.0555 5.37499 16.0496 5.38346C16.0467 5.37781 16.0437 5.37499 16.0437 5.37499C16.0055 5.30443 15.9702 5.23387 15.932 5.16614C15.9261 5.16049 15.9232 5.15485 15.9202 5.1492C15.9026 5.1238 15.882 5.10969 15.8497 5.10969C15.8202 5.11251 15.7967 5.12945 15.782 5.15485C15.7761 5.16614 15.7761 5.1746 15.7732 5.18589C15.7614 5.27621 15.7467 5.36652 15.735 5.45684C15.7291 5.50764 15.7261 5.55844 15.7261 5.60924C15.7232 5.62053 15.7261 5.63464 15.732 5.64593C15.7379 5.66851 15.7555 5.68262 15.7791 5.68545C15.8085 5.68827 15.8291 5.6798 15.8379 5.65722C15.8467 5.64029 15.8497 5.62618 15.8526 5.61207C15.8644 5.56126 15.8732 5.51328 15.882 5.4653C15.8879 5.43708 15.8908 5.4145 15.8996 5.38346C15.9055 5.39475 15.9114 5.40321 15.9173 5.41168C15.9437 5.44555 15.9702 5.47942 16.0026 5.50764C16.0349 5.53022 16.0614 5.5274 16.0878 5.50199C16.0937 5.49635 16.0967 5.49353 16.1025 5.48788C16.129 5.44837 16.1614 5.40886 16.1878 5.36934C16.1937 5.3637 16.1966 5.35805 16.2025 5.35241Z" fill="#3A3B7B"/>
<path d="M9.42698 5.27803C9.40653 5.33167 9.40263 5.37031 9.41207 5.40243C9.42249 5.44611 9.44955 5.4604 9.48627 5.4493C9.83167 5.36732 10.5891 5.6 10.8695 5.66485C10.9356 5.67847 10.9894 5.59653 10.9443 5.52307C10.8784 5.45193 10.1214 5.14735 9.8325 5.13074C9.71927 5.1246 9.51685 5.09673 9.42698 5.27803Z" fill="#3A3B7B"/>
<path d="M12.387 4.29206C12.4238 4.31245 12.4444 4.3319 12.4546 4.35364C12.4697 4.38215 12.4617 4.40187 12.4363 4.41194C12.208 4.51888 11.9042 4.97932 11.7815 5.13811C11.7518 5.17464 11.6832 5.15342 11.6729 5.09334C11.675 5.02542 11.9443 4.52575 12.0946 4.38965C12.1537 4.33652 12.2513 4.23226 12.387 4.29206Z" fill="#3A3B7B"/>
<path d="M10.5688 4.06542C10.613 4.03343 10.659 4.02222 10.6824 4.04301C11.0269 4.32576 11.2096 4.77352 11.3227 5.18344C11.327 5.19299 11.3272 5.20669 11.3238 5.22099C11.3224 5.23321 11.3131 5.24612 11.2983 5.2561C11.2825 5.26713 11.269 5.27049 11.2626 5.26099C11.1116 5.0639 10.2493 4.29705 10.5688 4.06542Z" fill="#3A3B7B"/>
<path d="M3.27408 8.96761C3.35664 8.90861 3.4464 8.8595 3.54138 8.82138C3.64075 8.79412 3.74667 8.79863 3.84313 8.83428C3.93957 8.86993 4.02132 8.93473 4.07597 9.01892C4.12486 9.10289 4.14398 9.19985 4.13049 9.29517C4.11699 9.39047 4.0716 9.479 4.00112 9.54741C3.94649 9.60286 3.88447 9.65117 3.8167 9.69108C3.51466 9.87837 3.20992 10.0554 2.9052 10.2427C2.84285 10.2895 2.77671 10.3316 2.7074 10.3684C2.60198 10.4188 2.48151 10.4323 2.3668 10.4066C2.2521 10.3808 2.15039 10.3174 2.07925 10.2273C2.02607 10.1635 1.98119 10.0937 1.9456 10.0195C1.65691 9.4371 1.35754 8.8573 1.07955 8.26466C0.951244 8.00813 0.846998 7.71309 0.745424 7.42832C0.701479 7.34559 0.692897 7.24967 0.721507 7.16094C0.750116 7.07222 0.81366 6.99771 0.898621 6.95326C0.983582 6.90881 1.08326 6.89794 1.17645 6.92294C1.26964 6.94794 1.34899 7.00684 1.39763 7.08712C1.54714 7.27781 1.67949 7.48037 1.79324 7.69258C2.08192 8.20567 2.35724 8.71875 2.63523 9.21646C2.65142 9.24397 2.66927 9.2705 2.68869 9.29599C2.89793 9.21155 3.09472 9.10115 3.27408 8.96761Z" fill="#3A3B7B"/>
<path d="M6.25887 8.78863C5.59865 9.53004 4.49202 9.34276 3.93604 8.38841C3.54043 7.71112 3.47094 6.59257 4.33165 5.88707C4.51545 5.73936 4.73522 5.63875 4.97049 5.5946C5.25895 5.55491 5.5531 5.60375 5.81089 5.73415C6.06868 5.86455 6.27694 6.06982 6.4059 6.32064C6.87634 7.14159 6.80951 8.1883 6.25887 8.78863ZM5.99157 7.05949C5.92143 6.85775 5.78072 6.68552 5.59329 6.57204C5.48724 6.49949 5.35836 6.46422 5.22839 6.47216C5.0984 6.48011 4.97524 6.53078 4.87961 6.61565C4.49738 6.94148 4.41717 7.7137 4.69516 8.17292C4.73061 8.2478 4.78263 8.31434 4.84767 8.3679C4.9127 8.42146 4.98914 8.46074 5.07163 8.48296C5.15412 8.50521 5.24068 8.50988 5.32525 8.49665C5.40983 8.4834 5.49035 8.4526 5.56124 8.40637C5.76843 8.25218 5.92044 8.03987 5.99612 7.79896C6.07182 7.55803 6.06743 7.30047 5.98357 7.06207L5.99157 7.05949Z" fill="#3A3B7B"/>
<path d="M8.95325 7.38274C8.88566 7.39669 8.81584 7.39752 8.74789 7.38518C8.67997 7.37284 8.61527 7.3476 8.55766 7.31091C8.50725 7.28323 8.46385 7.24518 8.43058 7.19948C8.39734 7.15378 8.37506 7.10158 8.36535 7.04661C8.35562 6.99167 8.35874 6.93533 8.37441 6.88167C8.3901 6.828 8.41801 6.77833 8.45609 6.73624C8.52245 6.65165 8.61664 6.59109 8.72339 6.56436C9.0021 6.48672 9.28901 6.43939 9.57875 6.42326C9.64241 6.41615 9.7069 6.42132 9.76844 6.43847C9.82999 6.45563 9.88733 6.48439 9.93714 6.52312C9.98693 6.56182 10.0282 6.60971 10.0584 6.66393C10.0887 6.71815 10.1074 6.77763 10.1133 6.83887C10.1969 7.13967 10.206 7.45507 10.1401 7.75988C9.89951 8.74501 9.07087 9.08365 8.14067 8.7681C7.87956 8.68373 7.65061 8.52653 7.48312 8.31658C7.25971 8.06374 7.10131 7.7641 7.02068 7.44175C6.95536 7.1547 6.96251 6.85684 7.04157 6.573C7.12061 6.28916 7.26926 6.02758 7.47509 5.81011C7.67043 5.57374 7.92396 5.38771 8.21285 5.26879C8.39539 5.17222 8.609 5.14476 8.8116 5.19183C8.85755 5.20403 8.89927 5.22782 8.93243 5.26072C8.96558 5.29362 8.98896 5.33443 9.00015 5.37893C9.01133 5.42342 9.0099 5.46998 8.99602 5.51377C8.98212 5.55756 8.9563 5.59698 8.92119 5.62796C8.85444 5.68595 8.78192 5.73751 8.70467 5.78189C8.46703 5.92713 8.26024 6.11429 8.09523 6.33346C7.98707 6.47528 7.91258 6.63814 7.87702 6.81055C7.84145 6.98295 7.84568 7.16075 7.88942 7.33144C7.95003 7.56417 8.08456 7.77306 8.27431 7.92918C8.86237 8.44229 9.62685 7.94714 9.4932 7.24677C9.29809 7.29296 9.127 7.3417 8.95325 7.38274Z" fill="#3A3B7B"/>
<path d="M12.5458 8.82965C11.6771 9.34276 10.6881 8.82965 10.4715 7.75216C10.3138 6.98252 10.6132 5.90502 11.661 5.49454C11.884 5.40908 12.1258 5.37908 12.364 5.40731C12.6503 5.4576 12.9129 5.59285 13.1147 5.79399C13.3166 5.99513 13.4477 6.25201 13.4893 6.52843C13.6658 7.44429 13.2648 8.42175 12.5458 8.82965ZM12.8478 7.10309C12.8476 6.88997 12.769 6.68374 12.626 6.52073C12.5495 6.4199 12.439 6.34766 12.3132 6.3163C12.1875 6.28497 12.0543 6.29645 11.9363 6.34885C11.4659 6.54381 11.1344 7.25188 11.2547 7.77269C11.2639 7.85442 11.2916 7.93324 11.3358 8.00363C11.38 8.07403 11.4398 8.1343 11.5108 8.18025C11.5818 8.22617 11.6624 8.25667 11.747 8.26959C11.8316 8.28248 11.9181 8.27751 12.0005 8.255C12.2492 8.17162 12.4645 8.0158 12.6164 7.80929C12.7683 7.60277 12.8492 7.35588 12.8478 7.10309Z" fill="#3A3B7B"/>
<path d="M14.3679 9.04518C14.3547 9.13907 14.3033 9.22412 14.2249 9.28162C14.1464 9.3391 14.0474 9.36434 13.9495 9.35175C13.8517 9.33916 13.7631 9.28978 13.7032 9.21448C13.6433 9.13921 13.617 9.04414 13.6301 8.95025C13.6432 8.85636 13.6947 8.77131 13.7731 8.71381C13.8516 8.65631 13.9506 8.63109 14.0484 8.64368C14.1463 8.65627 14.2349 8.70562 14.2948 8.78092C14.3547 8.85622 14.381 8.95128 14.3679 9.04518ZM14.1353 5.58434C14.1861 5.50982 14.2607 5.45307 14.3479 5.42256C14.4351 5.39204 14.5302 5.3894 14.6191 5.41502C14.7095 5.43672 14.7893 5.48755 14.8453 5.55901C14.9012 5.63047 14.9299 5.71821 14.9265 5.80754C14.9147 5.95082 14.8924 6.09314 14.8597 6.2334C14.7715 6.70802 14.6859 7.18262 14.5924 7.65212C14.5496 7.8394 14.4935 8.01898 14.432 8.20882C14.4106 8.26817 14.3749 8.32179 14.3278 8.36532C14.2985 8.39806 14.2611 8.42317 14.219 8.43833C14.1769 8.45351 14.1315 8.45824 14.087 8.4521C14.0425 8.44597 14.0003 8.42915 13.9644 8.40323C13.9284 8.37729 13.8999 8.34307 13.8814 8.30375C13.8496 8.2332 13.8323 8.15739 13.8306 8.08055C13.8306 7.76243 13.8306 7.44175 13.852 7.12105C13.8883 6.6634 13.9598 6.20893 14.0658 5.76136C14.0783 5.70139 14.1018 5.64405 14.1353 5.59204V5.58434Z" fill="#3A3B7B"/>
<path fill-rule="evenodd" clip-rule="evenodd" d="M2.14474 11.1068C2.11318 11.1744 2.10453 11.2498 2.11995 11.3223C2.13021 11.4179 2.15275 11.512 2.18704 11.6024C2.22986 11.713 2.27778 11.8224 2.33686 11.9573C2.35045 11.9883 2.36465 12.0207 2.37951 12.0548C2.45918 12.2375 2.55915 12.4709 2.6925 12.8088C2.73024 12.9048 2.76375 13.0016 2.7975 13.099C2.81114 13.1384 2.82482 13.1779 2.83883 13.2175C2.88903 13.3582 2.97542 13.4846 3.08992 13.5849C3.13854 13.6399 3.20304 13.6801 3.27535 13.7001C3.34908 13.7206 3.4275 13.7193 3.50044 13.6964C3.57338 13.6735 3.63745 13.6301 3.68432 13.5717C3.73028 13.5145 3.7576 13.4456 3.76292 13.3736C3.79273 13.2334 3.78255 13.0879 3.73342 12.9527C3.65543 12.7282 3.56659 12.5034 3.46415 12.2834L3.46368 12.2825C3.29515 11.9384 3.12384 11.5967 2.94442 11.2549L2.94308 11.2525C2.89056 11.1634 2.8223 11.0838 2.74138 11.0172C2.68884 10.9578 2.61637 10.9177 2.53635 10.9039C2.45461 10.8898 2.37032 10.904 2.29851 10.944C2.23058 10.9813 2.17673 11.0382 2.14474 11.1068Z" fill="#3A3B7B"/>
<path fill-rule="evenodd" clip-rule="evenodd" d="M4.71878 10.2595C4.45453 10.1938 4.17856 10.1843 3.9101 10.2315C3.70216 10.2511 3.49765 10.2972 3.35564 10.3884C3.28342 10.4348 3.22502 10.4943 3.19254 10.5701C3.15988 10.6462 3.15571 10.7333 3.18247 10.8304C3.23134 11.0081 3.2948 11.181 3.35804 11.3532L3.36829 11.3811L3.36853 11.3818C3.55894 11.8822 3.75116 12.381 3.94514 12.8781C3.96775 12.9564 3.99974 13.032 4.04045 13.1033L4.04121 13.1046C4.09499 13.1931 4.16397 13.2723 4.24523 13.3388C4.28587 13.3754 4.33613 13.4007 4.39062 13.412C4.44566 13.4234 4.50289 13.4201 4.55608 13.4024C4.6093 13.3848 4.65642 13.3534 4.69233 13.3118C4.72766 13.2708 4.75079 13.2215 4.75929 13.169C4.79435 13.0264 4.78312 12.8768 4.72708 12.7405C4.70959 12.6946 4.69587 12.6477 4.68141 12.5984C4.67659 12.5819 4.67171 12.5652 4.66655 12.5481C5.11056 12.3815 5.58299 12.1575 5.74912 11.6365C5.81418 11.4564 5.8196 11.2614 5.76464 11.0782C5.70963 10.8949 5.59676 10.7324 5.44159 10.613C5.2304 10.446 4.9837 10.3254 4.71878 10.2595ZM3.98632 10.8986C3.99506 10.8962 4.00387 10.894 4.0127 10.8919C4.30176 10.8483 4.59751 10.9064 4.84548 11.0555C4.95476 11.1284 4.99953 11.2095 5.00722 11.2875C5.01516 11.3678 4.98474 11.4548 4.92363 11.5384C4.80816 11.6964 4.59744 11.8229 4.4071 11.8464C4.26834 11.5397 4.12743 11.2206 3.98632 10.8986Z" fill="#3A3B7B"/>
<path d="M6.48048 9.69809C6.79517 9.5586 7.18497 9.53451 7.48999 9.63258C7.56682 9.65406 7.63346 9.70051 7.67854 9.764C7.72333 9.82709 7.744 9.90311 7.73709 9.97912C7.73665 10.0285 7.72403 10.077 7.70029 10.1208C7.67612 10.1654 7.64113 10.2037 7.59827 10.2326C7.55541 10.2614 7.50593 10.28 7.45404 10.2866C7.40212 10.2932 7.34933 10.2878 7.30008 10.2707L7.29634 10.2694L7.29282 10.2676C7.26762 10.2549 7.24085 10.2454 7.21317 10.2392L7.21142 10.2388C6.99685 10.1841 6.79445 10.2748 6.72052 10.3861C6.68526 10.4392 6.68088 10.4928 6.71025 10.5416C6.7417 10.5938 6.81884 10.6524 6.97493 10.6942C7.01785 10.7055 7.06186 10.7164 7.10649 10.7275C7.22992 10.7582 7.35818 10.79 7.48222 10.8342L7.48269 10.8344C8.0549 11.0433 8.26797 11.4761 8.19502 11.8832C8.12286 12.2857 7.7726 12.652 7.24588 12.7384C7.05421 12.7792 6.85475 12.7713 6.66723 12.7154C6.47925 12.6594 6.3098 12.5571 6.17572 12.4187L6.17223 12.4151C6.1299 12.363 6.10143 12.3017 6.08881 12.2368C6.0772 12.1781 6.08332 12.1175 6.10641 12.0621C6.12936 12.007 6.16819 11.9593 6.21829 11.9246C6.27122 11.8852 6.33502 11.8615 6.4018 11.8566C6.46835 11.8517 6.53495 11.8656 6.59339 11.8965C6.65176 11.9236 6.70606 11.9581 6.75479 11.9992L6.75571 11.9999C6.84193 12.0756 6.94623 12.0953 7.04625 12.0771C7.14774 12.0585 7.24316 12.0009 7.30454 11.9244C7.36551 11.8484 7.38999 11.7582 7.36094 11.6706C7.33171 11.5823 7.24381 11.4834 7.05069 11.4007C7.00021 11.3802 6.94787 11.3636 6.89342 11.3474C6.87873 11.3431 6.86381 11.3387 6.8487 11.3343C6.80844 11.3226 6.76701 11.3105 6.72639 11.2972C6.69841 11.2881 6.67066 11.2794 6.64318 11.2708C6.56806 11.2473 6.49483 11.2244 6.42435 11.1937C6.27095 11.1436 6.13842 11.0473 6.04649 10.9192C5.95418 10.7906 5.90773 10.6367 5.91405 10.4807C5.91455 10.1004 6.16411 9.83835 6.48048 9.69809Z" fill="#3A3B7B"/>
<path d="M10.4701 9.65758C10.4091 9.62898 10.3416 9.6154 10.2737 9.61806C10.2059 9.62075 10.1398 9.63958 10.0815 9.67292C10.0235 9.70601 9.97491 9.75236 9.94012 9.80783C9.90822 9.85455 9.88614 9.90679 9.87513 9.96164C9.86413 10.0165 9.8644 10.0728 9.8759 10.1275C9.88726 10.1978 9.89986 10.2661 9.9123 10.3335C9.9329 10.445 9.95294 10.5541 9.96617 10.6652L9.96666 10.6681C9.99677 10.8424 10.0125 11.0187 10.0139 11.1954L10.0141 11.1979C10.0244 11.3888 9.95662 11.5759 9.82537 11.7196L9.82328 11.7221C9.78058 11.7746 9.72348 11.8147 9.65836 11.8379C9.59327 11.8611 9.52274 11.8664 9.45466 11.8533C9.38658 11.8402 9.32366 11.8091 9.27291 11.7637C9.22216 11.7182 9.18555 11.6599 9.16728 11.5956C9.12827 11.4601 9.1057 11.3208 9.09996 11.1803L9.16659 10.1623C9.16757 10.149 9.16869 10.1354 9.16984 10.1216C9.17237 10.0907 9.17497 10.0592 9.17604 10.0298C9.17761 9.9866 9.17627 9.94215 9.16578 9.90007C9.15504 9.85708 9.13462 9.81617 9.09839 9.78134C9.06253 9.74686 9.01411 9.72142 8.95318 9.7041C8.843 9.67349 8.74983 9.67446 8.67221 9.70608C8.59453 9.7377 8.54131 9.79641 8.50365 9.86423C8.46629 9.93148 8.44228 10.0111 8.42412 10.0908C8.41065 10.15 8.39982 10.2121 8.38953 10.2713C8.38597 10.2916 8.38249 10.3116 8.37897 10.3311L8.37888 10.3316C8.32383 10.6559 8.30744 10.9851 8.33004 11.313C8.33425 11.4901 8.37274 11.665 8.44358 11.8286C8.52349 12.0398 8.66824 12.2228 8.85871 12.3534C9.04959 12.4842 9.27737 12.5563 9.51189 12.5601C9.74642 12.5639 9.97661 12.4993 10.172 12.3747C10.3671 12.2503 10.5182 12.072 10.6055 11.8634C10.7276 11.5977 10.785 11.3088 10.7731 11.0186C10.766 10.8067 10.754 10.5932 10.742 10.3808C10.7361 10.2766 10.7303 10.1726 10.725 10.0693C10.7224 9.96567 10.6868 9.86531 10.623 9.78167C10.5835 9.72879 10.531 9.68614 10.4701 9.65758Z" fill="#3A3B7B"/>
<path d="M12.6297 11.2539C12.6235 11.2614 12.617 11.2692 12.6102 11.2773C12.5606 11.0025 12.5146 10.7278 12.4685 10.4527C12.452 10.354 12.4354 10.2549 12.4187 10.156L12.4168 10.145L12.4107 10.1355C12.3992 10.1175 12.3981 10.0999 12.3981 10.0624V10.0581L12.3974 10.0538C12.3849 9.97639 12.3484 9.90432 12.2927 9.84706C12.2371 9.78996 12.1649 9.75022 12.0854 9.73297C12.0061 9.7142 11.9228 9.71833 11.846 9.74487C11.7693 9.77134 11.7025 9.81892 11.6538 9.88163C11.6134 9.92976 11.5802 9.98314 11.5554 10.0402C11.499 10.1631 11.4421 10.2862 11.3851 10.4097L11.3841 10.4119C11.2418 10.7202 11.0984 11.0307 10.9593 11.3435L10.9588 11.3445C10.8734 11.5474 10.8029 11.7612 10.7326 11.9742C10.7186 12.0168 10.7045 12.0593 10.6904 12.1017C10.665 12.1689 10.6539 12.2404 10.6577 12.3118C10.6531 12.3757 10.6691 12.4395 10.7034 12.4945C10.7385 12.5506 10.791 12.5947 10.8536 12.6207C10.9199 12.6486 10.994 12.6545 11.0643 12.6375C11.1343 12.6206 11.1966 12.5818 11.2412 12.5272C11.2981 12.46 11.3471 12.3866 11.387 12.309C11.5049 12.0775 11.6176 11.8433 11.7297 11.61C11.7731 11.5198 11.8153 11.439 11.8633 11.351C11.8666 11.3618 11.8699 11.3724 11.8734 11.383C11.9237 11.5955 12.0085 11.799 12.1249 11.9861C12.1469 12.0257 12.1775 12.0603 12.2148 12.0876C12.2524 12.1152 12.2959 12.1346 12.3421 12.1444C12.3884 12.1542 12.4363 12.1543 12.4826 12.1445C12.5288 12.1348 12.5724 12.1154 12.6101 12.0879L12.6846 12.0344L13.2635 11.5664L13.2293 11.7758C13.1823 12.0636 13.1357 12.349 13.0861 12.6344C13.0537 12.761 13.0537 12.8931 13.0863 13.0196C13.1003 13.0908 13.1362 13.1563 13.1893 13.2079C13.2428 13.2598 13.3114 13.2951 13.3861 13.3092C13.4607 13.3233 13.5381 13.3155 13.6081 13.2868C13.6771 13.2586 13.7358 13.2113 13.7768 13.1512C13.8723 13.0375 13.9317 12.8999 13.948 12.7547C13.9726 12.5497 14.0003 12.3419 14.0281 12.1342C14.0601 11.8948 14.0921 11.6554 14.1191 11.4207L14.1192 11.4199C14.1452 11.1629 14.1578 10.9049 14.1569 10.6467C14.1626 10.5651 14.1414 10.4838 14.0963 10.4143C14.0511 10.3446 13.984 10.2904 13.9048 10.2594C13.8224 10.2235 13.7302 10.2138 13.6416 10.232C13.5537 10.2501 13.4741 10.2946 13.4144 10.359C13.3076 10.4538 13.2075 10.5552 13.1145 10.6626L13.1139 10.6633C13.0125 10.7846 12.9117 10.9083 12.8116 11.0312C12.7508 11.1059 12.6901 11.1805 12.6297 11.2539Z" fill="#3A3B7B"/>
</g>
<defs>
<clipPath id="clip0_2_852">
<rect width="15.6917" height="9.68213" fill="white" transform="translate(0.70491 4.03248)"/>
</clipPath>
</defs>
</svg>
