<svg width="14" height="14" viewBox="0 0 14 14" fill="none" xmlns="http://www.w3.org/2000/svg">
<g clip-path="url(#clip0_2_843)">
<path fill-rule="evenodd" clip-rule="evenodd" d="M3.75087 0.08041C5.59475 0.08041 7.08954 1.57518 7.08954 3.41908V0.08041H10.4282C12.2721 0.08041 13.7669 1.57518 13.7669 3.41908C13.7669 5.26295 12.2721 6.75774 10.4282 6.75774C12.2721 6.75774 13.7669 8.25253 13.7669 10.0964C13.7669 11.012 13.3983 11.8415 12.8015 12.4446L12.789 12.4572L12.7779 12.4682C12.1746 13.0659 11.3445 13.4351 10.4282 13.4351C9.51812 13.4351 8.69306 13.0709 8.0908 12.4804C8.08299 12.4727 8.07518 12.465 8.0674 12.4572C8.06009 12.4499 8.05281 12.4426 8.04556 12.4352C7.45425 11.8328 7.08954 11.0072 7.08954 10.0964C7.08954 11.9403 5.59475 13.4351 3.75087 13.4351C1.90698 13.4351 0.412206 11.9403 0.412206 10.0964V6.75774H3.75087C1.90698 6.75774 0.412206 5.26295 0.412206 3.41908C0.412206 1.57518 1.90698 0.08041 3.75087 0.08041ZM6.4218 3.41908C6.4218 4.8942 5.22599 6.09001 3.75087 6.09001V0.748143C5.22599 0.748143 6.4218 1.94396 6.4218 3.41908ZM13.0991 10.0964C13.0991 8.62128 11.9033 7.42547 10.4282 7.42547C8.95308 7.42547 7.75727 8.62128 7.75727 10.0964H13.0991ZM1.07994 7.42547V10.0964C1.07994 11.5715 2.27576 12.7673 3.75087 12.7673C5.22599 12.7673 6.4218 11.5715 6.4218 10.0964V7.42547H1.07994ZM7.75727 6.09001V0.748143H10.4282C11.9033 0.748143 13.0991 1.94396 13.0991 3.41908C13.0991 4.8942 11.9033 6.09001 10.4282 6.09001H7.75727Z" fill="#263238"/>
</g>
<defs>
<clipPath id="clip0_2_843">
<rect width="13.3547" height="13.3547" fill="white" transform="translate(0.412206 0.08041)"/>
</clipPath>
</defs>
</svg>
