<svg width="18" height="17" viewBox="0 0 18 17" fill="none" xmlns="http://www.w3.org/2000/svg">
<g clip-path="url(#clip0_2_872)">
<path d="M4.68715 5.36793C4.00916 5.36793 3.35894 5.63726 2.87953 6.11667L1.31494 7.68127C0.835523 8.16068 0.566193 8.8109 0.566193 9.48889C0.566193 10.9007 1.71072 12.0453 3.12256 12.0453C3.80056 12.0453 4.45077 11.7759 4.93018 11.2965L6.01242 10.2143C6.01242 10.2142 6.01245 10.2143 6.01242 10.2143L9.16571 7.06099C9.39467 6.83203 9.70521 6.7034 10.029 6.7034C10.5711 6.7034 11.0307 7.05672 11.1901 7.54565L12.1852 6.55048C11.7312 5.83943 10.9352 5.36793 10.029 5.36793C9.35102 5.36793 8.70081 5.63726 8.2214 6.11667L3.98588 10.3522C3.75691 10.5812 3.44637 10.7098 3.12256 10.7098C2.44827 10.7098 1.90166 10.1632 1.90166 9.48889C1.90166 9.16508 2.03029 8.85454 2.25925 8.62558L3.82384 7.06099C4.05281 6.83203 4.36335 6.7034 4.68715 6.7034C5.22928 6.7034 5.68886 7.05674 5.84821 7.54568L6.8434 6.5505C6.3894 5.83944 5.59336 5.36793 4.68715 5.36793Z" fill="#394149"/>
<path d="M9.32773 10.3522C9.09877 10.5811 8.78823 10.7098 8.46442 10.7098C7.92238 10.7098 7.46282 10.3565 7.30343 9.8677L6.30829 10.8628C6.7623 11.5738 7.55831 12.0452 8.46442 12.0452C9.14241 12.0452 9.79263 11.7759 10.272 11.2965L14.5076 7.06097C14.7365 6.832 15.0471 6.70337 15.3709 6.70337C16.0452 6.70337 16.5918 7.24999 16.5918 7.92428C16.5918 8.24809 16.4632 8.55863 16.2342 8.78759L14.6696 10.3522C14.4406 10.5811 14.1301 10.7098 13.8063 10.7098C13.2642 10.7098 12.8046 10.3565 12.6453 9.86758L11.6501 10.8628C12.1041 11.5738 12.9001 12.0452 13.8063 12.0452C14.4843 12.0452 15.1345 11.7759 15.6139 11.2965L17.1785 9.7319C17.6579 9.25249 17.9272 8.60227 17.9272 7.92428C17.9272 6.51243 16.7827 5.36791 15.3709 5.36791C14.6929 5.36791 14.0427 5.63724 13.5633 6.11665L9.32773 10.3522Z" fill="#394149"/>
</g>
<defs>
<clipPath id="clip0_2_872">
<rect width="17.3611" height="6.67733" fill="white" transform="translate(0.566193 5.36793)"/>
</clipPath>
</defs>
</svg>
