<svg width="20" height="17" viewBox="0 0 20 17" fill="none" xmlns="http://www.w3.org/2000/svg">
<g clip-path="url(#clip0_2_876)">
<path d="M19.0251 7.26084C19.027 7.24691 19.027 7.23284 19.0251 7.21892C19.0269 7.20758 19.0269 7.19601 19.0251 7.18464L18.889 6.20553C18.8694 6.08839 18.8169 5.9789 18.7375 5.88932L18.7141 5.86265L18.6714 5.82074L16.3165 3.83204L16.3825 3.89681C16.3285 3.83341 16.2606 3.7827 16.184 3.74842C16.1073 3.71413 16.0238 3.69714 15.9395 3.6987H15.2245C15.1082 3.69644 14.9946 3.73268 14.9019 3.80156C14.8046 3.73309 14.6875 3.69704 14.5677 3.6987H13.8527C13.7589 3.6972 13.6664 3.72002 13.5845 3.76485C13.5026 3.80967 13.4343 3.87491 13.3864 3.95395C13.3125 4.06685 13.2848 4.20287 13.3086 4.33493L13.398 4.95211C13.3388 4.9192 13.2718 4.90213 13.2037 4.90259H9.74122C9.61699 4.90335 9.49562 4.93905 9.39146 5.00545C9.29075 5.06725 9.2099 5.15575 9.15831 5.2607L8.89016 5.03593C8.78463 4.94019 8.64533 4.88831 8.50156 4.89116H3.06884C2.94417 4.89338 2.82227 4.92753 2.71522 4.99021C2.56876 5.07425 2.46143 5.21089 2.41598 5.37119L0.690567 11.0287C0.658328 11.1219 0.655156 11.2225 0.681459 11.3175C0.707761 11.4124 0.762345 11.4976 0.838239 11.5621C0.858014 11.5785 0.878779 11.5938 0.900417 11.6078C0.900417 11.6078 0.865437 11.5849 0.846007 11.5659L3.20097 13.5584C3.30059 13.6483 3.43084 13.6986 3.56624 13.6993H9.04173C9.16678 13.6962 9.28876 13.6607 9.39537 13.5965C9.45566 13.5642 9.5096 13.5216 9.55469 13.4708L9.57412 13.4441L9.60521 13.406L9.62852 13.3641L9.88501 13.5813C9.9832 13.6676 10.1106 13.7151 10.2425 13.7146H15.7296C15.8546 13.7105 15.9763 13.6751 16.0833 13.6117C16.1422 13.5774 16.1958 13.5351 16.2426 13.486L16.262 13.4593L16.2931 13.4212C16.3096 13.3971 16.324 13.3716 16.3359 13.345C16.3486 13.3219 16.359 13.2977 16.367 13.2727L17.9408 8.10661V8.06089C17.9428 8.04316 17.9428 8.02528 17.9408 8.00755V7.97327C17.9427 7.96191 17.9427 7.95034 17.9408 7.93897C17.9426 7.91488 17.9426 7.89069 17.9408 7.86658H18.446C18.49 7.87053 18.5342 7.87053 18.5781 7.86658H18.6131C18.6416 7.85826 18.6689 7.84675 18.6947 7.8323H18.7336L18.8035 7.77896L18.8346 7.7561L18.889 7.68752V7.66468L18.9279 7.5999C18.9257 7.58731 18.9257 7.57441 18.9279 7.56182C18.9258 7.55563 18.9258 7.54895 18.9279 7.54276C18.9361 7.52043 18.9426 7.49749 18.9473 7.47418C18.9455 7.46666 18.9455 7.45883 18.9473 7.45132C18.9454 7.43997 18.9454 7.42838 18.9473 7.41704C18.9473 7.41704 19.0251 7.26845 19.0251 7.26084Z" fill="black"/>
<path d="M8.66094 5.32544C8.68158 5.34373 8.69599 5.36778 8.70223 5.39435C8.70851 5.42091 8.70629 5.44872 8.69593 5.47402L6.97441 11.1277C6.95273 11.1894 6.90838 11.2411 6.85005 11.2725C6.80259 11.3036 6.74766 11.322 6.69071 11.3258H1.21914C1.17241 11.3236 1.12814 11.3047 1.09478 11.2725C1.07494 11.2545 1.06101 11.2311 1.05478 11.2053C1.04855 11.1796 1.0503 11.1525 1.05981 11.1277L2.78522 5.47402C2.8051 5.41152 2.84806 5.35853 2.90569 5.32544C2.95393 5.29655 3.00861 5.27955 3.06502 5.27591H8.53659C8.58295 5.27635 8.62741 5.29406 8.66094 5.32544ZM5.80468 9.98861L6.8345 6.61314H3.95105L2.92511 9.98861H5.80468ZM13.8838 5.38258C13.9025 5.40385 13.9258 5.42072 13.9521 5.43193C13.9783 5.44315 14.0068 5.44842 14.0354 5.44735H14.7465C14.7736 5.44761 14.8003 5.4411 14.8241 5.42843C14.8479 5.41577 14.868 5.39737 14.8825 5.37496C14.8952 5.35747 14.9041 5.33766 14.9088 5.31671C14.9134 5.29577 14.9138 5.27413 14.9097 5.25305L14.7698 4.24727C14.7565 4.20072 14.7326 4.15774 14.6999 4.12155C14.6812 4.10028 14.6579 4.08341 14.6317 4.0722C14.6054 4.06099 14.5769 4.05572 14.5483 4.05678H13.8372C13.8101 4.05653 13.7834 4.06304 13.7596 4.0757C13.7358 4.08837 13.7157 4.10677 13.7012 4.12917C13.674 4.18251 13.6623 4.21679 13.674 4.24727L13.8178 5.25305C13.8251 5.30203 13.8483 5.34741 13.8838 5.38258ZM16.1416 4.23965C16.1283 4.1931 16.1044 4.15012 16.0717 4.11393C16.0538 4.09274 16.0312 4.07588 16.0055 4.06464C15.9799 4.05341 15.952 4.04812 15.924 4.04916H15.209C15.1823 4.04842 15.156 4.05476 15.1327 4.0675C15.1095 4.08024 15.0902 4.09892 15.0769 4.12155C15.051 4.15535 15.0398 4.1978 15.0458 4.23965L15.1895 5.24543C15.1986 5.29389 15.2215 5.33882 15.2556 5.37496C15.2746 5.39582 15.298 5.4124 15.3242 5.42358C15.3503 5.43476 15.3786 5.44027 15.4072 5.43973H16.1222C16.1488 5.44007 16.1749 5.43357 16.1981 5.42087C16.2213 5.40816 16.2407 5.38971 16.2543 5.36735C16.2679 5.3503 16.2773 5.3305 16.282 5.30941C16.2867 5.28831 16.2865 5.26646 16.2815 5.24543L16.1416 4.23965ZM13.2582 5.76356L13.1882 5.26829H9.74128C9.68716 5.27122 9.6348 5.28832 9.58971 5.31782C9.5611 5.33312 9.53618 5.35433 9.51672 5.37998C9.49729 5.40563 9.48374 5.43512 9.47704 5.4664L9.18946 6.41122C9.17798 6.43483 9.17405 6.46132 9.17821 6.48716C9.18239 6.513 9.19443 6.53699 9.21277 6.556C9.24554 6.5862 9.28831 6.6038 9.33325 6.60553H13.5224L12.4926 9.98099H8.31509C8.26122 9.98219 8.20876 9.99802 8.16354 10.0267C8.10858 10.0609 8.06844 10.1138 8.05084 10.1753L7.75939 11.1201C7.74988 11.1444 7.74738 11.1707 7.75217 11.1962C7.75699 11.2218 7.76888 11.2455 7.78657 11.2649C7.81833 11.2971 7.86143 11.3162 7.90705 11.3182H13.3942C13.4509 11.3134 13.5056 11.2951 13.5535 11.2649C13.6109 11.2333 13.6539 11.1816 13.674 11.1201L15.2517 5.95405H13.4758C13.4476 5.9546 13.4196 5.94947 13.3936 5.93898C13.3675 5.9285 13.3439 5.91288 13.3242 5.89309C13.2921 5.85854 13.2694 5.81662 13.2582 5.77118V5.76356Z" fill="white"/>
</g>
<defs>
<clipPath id="clip0_2_876">
<rect width="18.3627" height="10.016" fill="white" transform="translate(0.663818 3.6986)"/>
</clipPath>
</defs>
</svg>
