<svg width="17" height="17" viewBox="0 0 17 17" fill="none" xmlns="http://www.w3.org/2000/svg">
<g clip-path="url(#clip0_2_845)">
<path fill-rule="evenodd" clip-rule="evenodd" d="M5.17758 5.40622L1.84367 8.70661C2.51051 9.36677 3.27228 9.92312 4.10282 10.3584C4.33239 10.9612 4.69223 11.5266 5.18233 12.0117C7.02624 13.8371 10.0158 13.8371 11.8597 12.0117C12.3498 11.5266 12.7096 10.9612 12.9392 10.3584C13.7697 9.92312 14.5315 9.36677 15.1983 8.70661L11.8671 5.4089C11.8646 5.40643 11.8622 5.40396 11.8597 5.4015C10.0158 3.57614 7.02624 3.57614 5.18233 5.4015C5.18075 5.40307 5.17917 5.40464 5.17758 5.40622ZM11.5407 10.9538C10.5691 11.2784 9.54921 11.4447 8.521 11.4447C7.49279 11.4447 6.47293 11.2784 5.50137 10.9538C5.60664 11.0921 5.72286 11.2248 5.85006 11.3507C7.32519 12.811 9.71681 12.811 11.1919 11.3507C11.3191 11.2248 11.4354 11.0921 11.5407 10.9538ZM5.91854 5.99642C6.16904 6.16025 6.4354 6.30044 6.71411 6.41474C7.28696 6.64963 7.90094 6.77053 8.521 6.77053C9.14105 6.77053 9.75503 6.64963 10.3279 6.41474C10.6066 6.30044 10.873 6.16025 11.1235 5.99641C9.66676 4.62427 7.37523 4.62427 5.91854 5.99642Z" fill="#3B4158"/>
</g>
<defs>
<clipPath id="clip0_2_845">
<rect width="13.3547" height="9.34826" fill="white" transform="translate(1.84367 4.03248)"/>
</clipPath>
</defs>
</svg>
