<svg width="20" height="17" viewBox="0 0 20 17" fill="none" xmlns="http://www.w3.org/2000/svg">
<g clip-path="url(#clip0_2_848)">
<path d="M19.2992 7.26084C19.3011 7.24691 19.3011 7.23284 19.2992 7.21892C19.301 7.20758 19.301 7.19601 19.2992 7.18464L19.1632 6.20553C19.1436 6.08839 19.0911 5.9789 19.0116 5.88932L18.9883 5.86265L18.9456 5.82074L16.5906 3.83204L16.6567 3.89681C16.6026 3.83341 16.5348 3.7827 16.4581 3.74842C16.3815 3.71413 16.2979 3.69714 16.2137 3.6987H15.4986C15.3824 3.69644 15.2687 3.73268 15.1761 3.80156C15.0788 3.73309 14.9617 3.69704 14.8419 3.6987H14.1268C14.0331 3.6972 13.9406 3.72002 13.8587 3.76485C13.7768 3.80967 13.7084 3.87491 13.6605 3.95395C13.5867 4.06685 13.5589 4.20287 13.5828 4.33493L13.6722 4.95211C13.613 4.9192 13.5459 4.90213 13.4779 4.90259H10.0154C9.89116 4.90335 9.76979 4.93905 9.66563 5.00545C9.56492 5.06725 9.48407 5.15575 9.43248 5.2607L9.16433 5.03593C9.0588 4.94019 8.9195 4.88831 8.77573 4.89116H3.34301C3.21834 4.89338 3.09644 4.92753 2.98939 4.99021C2.84293 5.07425 2.7356 5.21089 2.69015 5.37119L0.964737 11.0287C0.932498 11.1219 0.929326 11.2225 0.955629 11.3175C0.981931 11.4124 1.03652 11.4976 1.11241 11.5621C1.13218 11.5785 1.15295 11.5938 1.17459 11.6078C1.17459 11.6078 1.13961 11.5849 1.12018 11.5659L3.47514 13.5584C3.57476 13.6483 3.70501 13.6986 3.84041 13.6993H9.3159C9.44095 13.6962 9.56293 13.6607 9.66954 13.5965C9.72983 13.5642 9.78377 13.5216 9.82886 13.4708L9.84829 13.4441L9.87938 13.406L9.90269 13.3641L10.1592 13.5813C10.2574 13.6676 10.3848 13.7151 10.5167 13.7146H16.0038C16.1287 13.7105 16.2505 13.6751 16.3574 13.6117C16.4164 13.5774 16.47 13.5351 16.5168 13.486L16.5362 13.4593L16.5673 13.4212C16.5838 13.3971 16.5981 13.3716 16.61 13.345C16.6227 13.3219 16.6331 13.2977 16.6411 13.2727L18.215 8.10661V8.06089C18.2169 8.04316 18.2169 8.02528 18.215 8.00755V7.97327C18.2169 7.96191 18.2169 7.95034 18.215 7.93897C18.2167 7.91488 18.2167 7.89069 18.215 7.86658H18.7202C18.7641 7.87053 18.8083 7.87053 18.8523 7.86658H18.8873C18.9157 7.85826 18.9431 7.84675 18.9689 7.8323H19.0078L19.0777 7.77896L19.1088 7.7561L19.1632 7.68752V7.66468L19.2021 7.5999C19.1999 7.58731 19.1999 7.57441 19.2021 7.56182C19.2 7.55563 19.2 7.54895 19.2021 7.54276C19.2103 7.52043 19.2168 7.49749 19.2215 7.47418C19.2197 7.46666 19.2197 7.45883 19.2215 7.45132C19.2196 7.43997 19.2196 7.42838 19.2215 7.41704C19.2215 7.41704 19.2992 7.26845 19.2992 7.26084Z" fill="black"/>
<path d="M8.93504 5.32544C8.95567 5.34373 8.97008 5.36778 8.97633 5.39435C8.9826 5.42091 8.98038 5.44872 8.97003 5.47402L7.2485 11.1277C7.22683 11.1894 7.18247 11.2411 7.12415 11.2725C7.07668 11.3036 7.02175 11.322 6.9648 11.3258H1.49323C1.4465 11.3236 1.40223 11.3047 1.36887 11.2725C1.34903 11.2545 1.3351 11.2311 1.32887 11.2053C1.32264 11.1796 1.32439 11.1525 1.3339 11.1277L3.05931 5.47402C3.07919 5.41152 3.12215 5.35853 3.17978 5.32544C3.22803 5.29655 3.2827 5.27955 3.33911 5.27591H8.81068C8.85705 5.27635 8.9015 5.29406 8.93504 5.32544ZM6.07878 9.98861L7.10859 6.61314H4.22514L3.19921 9.98861H6.07878ZM14.1579 5.38258C14.1766 5.40385 14.1999 5.42072 14.2262 5.43193C14.2524 5.44315 14.2809 5.44842 14.3095 5.44735H15.0206C15.0477 5.44761 15.0744 5.4411 15.0982 5.42843C15.122 5.41577 15.1421 5.39737 15.1566 5.37496C15.1693 5.35747 15.1782 5.33766 15.1829 5.31671C15.1875 5.29577 15.1879 5.27413 15.1838 5.25305L15.0439 4.24727C15.0306 4.20072 15.0067 4.15774 14.974 4.12155C14.9553 4.10028 14.932 4.08341 14.9058 4.0722C14.8795 4.06099 14.851 4.05572 14.8224 4.05678H14.1113C14.0842 4.05653 14.0575 4.06304 14.0337 4.0757C14.0099 4.08837 13.9898 4.10677 13.9753 4.12917C13.9481 4.18251 13.9364 4.21679 13.9481 4.24727L14.0919 5.25305C14.0992 5.30203 14.1224 5.34741 14.1579 5.38258ZM16.4157 4.23965C16.4024 4.1931 16.3785 4.15012 16.3458 4.11393C16.3279 4.09274 16.3052 4.07588 16.2796 4.06464C16.254 4.05341 16.2261 4.04812 16.1981 4.04916H15.4831C15.4564 4.04842 15.4301 4.05476 15.4068 4.0675C15.3836 4.08024 15.3643 4.09892 15.351 4.12155C15.3251 4.15535 15.3139 4.1978 15.3199 4.23965L15.4636 5.24543C15.4727 5.29389 15.4956 5.33882 15.5297 5.37496C15.5487 5.39582 15.5721 5.4124 15.5983 5.42358C15.6244 5.43476 15.6527 5.44027 15.6812 5.43973H16.3963C16.4229 5.44007 16.449 5.43357 16.4722 5.42087C16.4954 5.40816 16.5148 5.38971 16.5284 5.36735C16.5419 5.3503 16.5514 5.3305 16.5561 5.30941C16.5608 5.28831 16.5606 5.26646 16.5556 5.24543L16.4157 4.23965ZM13.5323 5.76356L13.4623 5.26829H10.0154C9.96125 5.27122 9.9089 5.28832 9.8638 5.31782C9.83519 5.33312 9.81027 5.35433 9.79081 5.37998C9.77138 5.40563 9.75784 5.43512 9.75113 5.4664L9.46355 6.41122C9.45207 6.43483 9.44815 6.46132 9.4523 6.48716C9.45649 6.513 9.46852 6.53699 9.48686 6.556C9.51963 6.5862 9.5624 6.6038 9.60734 6.60553H13.7965L12.7667 9.98099H8.58918C8.53532 9.98219 8.48286 9.99802 8.43764 10.0267C8.38268 10.0609 8.34254 10.1138 8.32494 10.1753L8.03348 11.1201C8.02397 11.1444 8.02147 11.1707 8.02626 11.1962C8.03108 11.2218 8.04297 11.2455 8.06067 11.2649C8.09242 11.2971 8.13552 11.3162 8.18115 11.3182H13.6683C13.725 11.3134 13.7797 11.2951 13.8276 11.2649C13.885 11.2333 13.928 11.1816 13.9481 11.1201L15.5258 5.95405H13.7499C13.7217 5.9546 13.6937 5.94947 13.6677 5.93898C13.6416 5.9285 13.618 5.91288 13.5983 5.89309C13.5662 5.85854 13.5435 5.81662 13.5323 5.77118V5.76356Z" fill="white"/>
</g>
<defs>
<clipPath id="clip0_2_848">
<rect width="18.3627" height="10.016" fill="white" transform="translate(0.937988 3.6986)"/>
</clipPath>
</defs>
</svg>
